<mxfile host="Electron" agent="Mozilla/5.0 (Windows NT 10.0; Win64; x64) AppleWebKit/537.36 (KHTML, like Gecko) draw.io/28.0.6 Chrome/138.0.7204.100 Electron/37.2.3 Safari/537.36" version="28.0.6">
  <diagram name="Page-1" id="bEpNmE1SYvbCPvDNSgTh">
    <mxGraphModel dx="2587" dy="1123" grid="1" gridSize="10" guides="1" tooltips="1" connect="1" arrows="1" fold="1" page="1" pageScale="1" pageWidth="850" pageHeight="1100" math="0" shadow="0">
      <root>
        <mxCell id="0" />
        <mxCell id="1" parent="0" />
        <mxCell id="KyPyz6f6_aPmJLBt3jEC-49" value="" style="rounded=1;whiteSpace=wrap;html=1;fillColor=none;dashed=1;" parent="1" vertex="1">
          <mxGeometry x="370" y="310" width="440" height="630" as="geometry" />
        </mxCell>
        <mxCell id="KyPyz6f6_aPmJLBt3jEC-45" value="" style="rounded=1;whiteSpace=wrap;html=1;fillColor=none;dashed=1;" parent="1" vertex="1">
          <mxGeometry x="-820" y="281" width="1030" height="570" as="geometry" />
        </mxCell>
        <mxCell id="KyPyz6f6_aPmJLBt3jEC-1" value="&lt;h1 style=&quot;margin-top: 0px;&quot;&gt;&lt;font style=&quot;font-size: 34px;&quot;&gt;Integration Model&lt;/font&gt;&lt;/h1&gt;&lt;p&gt;(How the tables are related).&lt;/p&gt;" style="text;html=1;whiteSpace=wrap;overflow=hidden;rounded=0;" parent="1" vertex="1">
          <mxGeometry x="-750" y="70" width="400" height="120" as="geometry" />
        </mxCell>
        <mxCell id="KyPyz6f6_aPmJLBt3jEC-15" value="&lt;b&gt;crm_cust_info&lt;/b&gt;" style="swimlane;fontStyle=0;childLayout=stackLayout;horizontal=1;startSize=30;horizontalStack=0;resizeParent=1;resizeParentMax=0;resizeLast=0;collapsible=1;marginBottom=0;whiteSpace=wrap;html=1;rounded=1;fontSize=26;fillColor=#dae8fc;strokeColor=#6c8ebf;" parent="1" vertex="1">
          <mxGeometry x="-130" y="660" width="260" height="110" as="geometry" />
        </mxCell>
        <mxCell id="KyPyz6f6_aPmJLBt3jEC-16" value="cst_id" style="text;strokeColor=none;fillColor=none;align=left;verticalAlign=middle;spacingLeft=4;spacingRight=4;overflow=hidden;points=[[0,0.5],[1,0.5]];portConstraint=eastwest;rotatable=0;whiteSpace=wrap;html=1;fontSize=26;" parent="KyPyz6f6_aPmJLBt3jEC-15" vertex="1">
          <mxGeometry y="30" width="260" height="40" as="geometry" />
        </mxCell>
        <mxCell id="KyPyz6f6_aPmJLBt3jEC-34" value="cst_key" style="text;strokeColor=none;fillColor=none;align=left;verticalAlign=middle;spacingLeft=4;spacingRight=4;overflow=hidden;points=[[0,0.5],[1,0.5]];portConstraint=eastwest;rotatable=0;whiteSpace=wrap;html=1;fontSize=26;" parent="KyPyz6f6_aPmJLBt3jEC-15" vertex="1">
          <mxGeometry y="70" width="260" height="40" as="geometry" />
        </mxCell>
        <mxCell id="KyPyz6f6_aPmJLBt3jEC-19" value="&lt;font style=&quot;font-size: 20px;&quot;&gt;Customer Information&lt;/font&gt;" style="text;html=1;align=center;verticalAlign=middle;whiteSpace=wrap;rounded=0;" parent="1" vertex="1">
          <mxGeometry x="-105" y="630" width="210" height="30" as="geometry" />
        </mxCell>
        <mxCell id="KyPyz6f6_aPmJLBt3jEC-20" value="&lt;b&gt;crm_product_info&lt;/b&gt;" style="swimlane;fontStyle=0;childLayout=stackLayout;horizontal=1;startSize=30;horizontalStack=0;resizeParent=1;resizeParentMax=0;resizeLast=0;collapsible=1;marginBottom=0;whiteSpace=wrap;html=1;rounded=1;fontSize=26;fillColor=#dae8fc;strokeColor=#6c8ebf;" parent="1" vertex="1">
          <mxGeometry x="-140" y="390" width="260" height="70" as="geometry" />
        </mxCell>
        <mxCell id="KyPyz6f6_aPmJLBt3jEC-21" value="product_key" style="text;strokeColor=none;fillColor=none;align=left;verticalAlign=middle;spacingLeft=4;spacingRight=4;overflow=hidden;points=[[0,0.5],[1,0.5]];portConstraint=eastwest;rotatable=0;whiteSpace=wrap;html=1;fontSize=26;" parent="KyPyz6f6_aPmJLBt3jEC-20" vertex="1">
          <mxGeometry y="30" width="260" height="40" as="geometry" />
        </mxCell>
        <mxCell id="KyPyz6f6_aPmJLBt3jEC-22" value="&lt;font style=&quot;font-size: 20px;&quot;&gt;Current &amp;amp; History Product Information&lt;/font&gt;" style="text;html=1;align=center;verticalAlign=middle;whiteSpace=wrap;rounded=0;" parent="1" vertex="1">
          <mxGeometry x="-230" y="350" width="420" height="30" as="geometry" />
        </mxCell>
        <mxCell id="KyPyz6f6_aPmJLBt3jEC-23" value="&lt;b&gt;crm_sales_details&lt;/b&gt;" style="swimlane;fontStyle=0;childLayout=stackLayout;horizontal=1;startSize=30;horizontalStack=0;resizeParent=1;resizeParentMax=0;resizeLast=0;collapsible=1;marginBottom=0;whiteSpace=wrap;html=1;rounded=1;fontSize=26;fillColor=#dae8fc;strokeColor=#6c8ebf;" parent="1" vertex="1">
          <mxGeometry x="-730" y="470" width="260" height="110" as="geometry" />
        </mxCell>
        <mxCell id="KyPyz6f6_aPmJLBt3jEC-24" value="sales_product_key" style="text;strokeColor=none;fillColor=none;align=left;verticalAlign=middle;spacingLeft=4;spacingRight=4;overflow=hidden;points=[[0,0.5],[1,0.5]];portConstraint=eastwest;rotatable=0;whiteSpace=wrap;html=1;fontSize=26;" parent="KyPyz6f6_aPmJLBt3jEC-23" vertex="1">
          <mxGeometry y="30" width="260" height="40" as="geometry" />
        </mxCell>
        <mxCell id="KyPyz6f6_aPmJLBt3jEC-26" value="sales_customer_id" style="text;strokeColor=none;fillColor=none;align=left;verticalAlign=middle;spacingLeft=4;spacingRight=4;overflow=hidden;points=[[0,0.5],[1,0.5]];portConstraint=eastwest;rotatable=0;whiteSpace=wrap;html=1;fontSize=26;" parent="KyPyz6f6_aPmJLBt3jEC-23" vertex="1">
          <mxGeometry y="70" width="260" height="40" as="geometry" />
        </mxCell>
        <mxCell id="KyPyz6f6_aPmJLBt3jEC-25" value="&lt;font style=&quot;font-size: 20px;&quot;&gt;Transactional Records about Sales &amp;amp; Orders&lt;/font&gt;" style="text;html=1;align=center;verticalAlign=middle;whiteSpace=wrap;rounded=0;" parent="1" vertex="1">
          <mxGeometry x="-800" y="430" width="420" height="30" as="geometry" />
        </mxCell>
        <mxCell id="KyPyz6f6_aPmJLBt3jEC-30" style="edgeStyle=orthogonalEdgeStyle;rounded=0;orthogonalLoop=1;jettySize=auto;html=1;entryX=0;entryY=0.5;entryDx=0;entryDy=0;" parent="1" source="KyPyz6f6_aPmJLBt3jEC-24" target="KyPyz6f6_aPmJLBt3jEC-21" edge="1">
          <mxGeometry relative="1" as="geometry" />
        </mxCell>
        <mxCell id="KyPyz6f6_aPmJLBt3jEC-31" style="edgeStyle=orthogonalEdgeStyle;rounded=0;orthogonalLoop=1;jettySize=auto;html=1;entryX=-0.014;entryY=0.13;entryDx=0;entryDy=0;entryPerimeter=0;" parent="1" source="KyPyz6f6_aPmJLBt3jEC-26" target="KyPyz6f6_aPmJLBt3jEC-16" edge="1">
          <mxGeometry relative="1" as="geometry" />
        </mxCell>
        <mxCell id="KyPyz6f6_aPmJLBt3jEC-32" value="&lt;b&gt;erp_Customers&lt;/b&gt;" style="swimlane;fontStyle=0;childLayout=stackLayout;horizontal=1;startSize=30;horizontalStack=0;resizeParent=1;resizeParentMax=0;resizeLast=0;collapsible=1;marginBottom=0;whiteSpace=wrap;html=1;rounded=1;fontSize=26;fillColor=#fff2cc;strokeColor=#d6b656;" parent="1" vertex="1">
          <mxGeometry x="420" y="600" width="260" height="70" as="geometry" />
        </mxCell>
        <mxCell id="KyPyz6f6_aPmJLBt3jEC-33" value="customer_id" style="text;strokeColor=none;fillColor=none;align=left;verticalAlign=middle;spacingLeft=4;spacingRight=4;overflow=hidden;points=[[0,0.5],[1,0.5]];portConstraint=eastwest;rotatable=0;whiteSpace=wrap;html=1;fontSize=26;" parent="KyPyz6f6_aPmJLBt3jEC-32" vertex="1">
          <mxGeometry y="30" width="260" height="40" as="geometry" />
        </mxCell>
        <mxCell id="KyPyz6f6_aPmJLBt3jEC-35" style="edgeStyle=orthogonalEdgeStyle;rounded=0;orthogonalLoop=1;jettySize=auto;html=1;entryX=0;entryY=0.5;entryDx=0;entryDy=0;" parent="1" source="KyPyz6f6_aPmJLBt3jEC-34" target="KyPyz6f6_aPmJLBt3jEC-33" edge="1">
          <mxGeometry relative="1" as="geometry" />
        </mxCell>
        <mxCell id="KyPyz6f6_aPmJLBt3jEC-36" value="&lt;span style=&quot;font-size: 20px;&quot;&gt;Extra Customer Info (Birth Date)&lt;/span&gt;" style="text;html=1;align=center;verticalAlign=middle;whiteSpace=wrap;rounded=0;" parent="1" vertex="1">
          <mxGeometry x="340" y="550" width="420" height="30" as="geometry" />
        </mxCell>
        <mxCell id="KyPyz6f6_aPmJLBt3jEC-37" value="&lt;b&gt;erp_Location&lt;/b&gt;" style="swimlane;fontStyle=0;childLayout=stackLayout;horizontal=1;startSize=30;horizontalStack=0;resizeParent=1;resizeParentMax=0;resizeLast=0;collapsible=1;marginBottom=0;whiteSpace=wrap;html=1;rounded=1;fontSize=26;fillColor=#fff2cc;strokeColor=#d6b656;" parent="1" vertex="1">
          <mxGeometry x="470" y="810" width="260" height="70" as="geometry" />
        </mxCell>
        <mxCell id="KyPyz6f6_aPmJLBt3jEC-38" value="customer_id" style="text;strokeColor=none;fillColor=none;align=left;verticalAlign=middle;spacingLeft=4;spacingRight=4;overflow=hidden;points=[[0,0.5],[1,0.5]];portConstraint=eastwest;rotatable=0;whiteSpace=wrap;html=1;fontSize=26;" parent="KyPyz6f6_aPmJLBt3jEC-37" vertex="1">
          <mxGeometry y="30" width="260" height="40" as="geometry" />
        </mxCell>
        <mxCell id="KyPyz6f6_aPmJLBt3jEC-39" value="&lt;span style=&quot;font-size: 20px;&quot;&gt;Location of Customers ( Country )&lt;/span&gt;" style="text;html=1;align=center;verticalAlign=middle;whiteSpace=wrap;rounded=0;" parent="1" vertex="1">
          <mxGeometry x="390" y="770" width="420" height="30" as="geometry" />
        </mxCell>
        <mxCell id="KyPyz6f6_aPmJLBt3jEC-41" value="&lt;b&gt;erp_category&lt;/b&gt;" style="swimlane;fontStyle=0;childLayout=stackLayout;horizontal=1;startSize=30;horizontalStack=0;resizeParent=1;resizeParentMax=0;resizeLast=0;collapsible=1;marginBottom=0;whiteSpace=wrap;html=1;rounded=1;fontSize=26;fillColor=#fff2cc;strokeColor=#d6b656;" parent="1" vertex="1">
          <mxGeometry x="440" y="415" width="260" height="70" as="geometry" />
        </mxCell>
        <mxCell id="KyPyz6f6_aPmJLBt3jEC-42" value="id" style="text;strokeColor=none;fillColor=none;align=left;verticalAlign=middle;spacingLeft=4;spacingRight=4;overflow=hidden;points=[[0,0.5],[1,0.5]];portConstraint=eastwest;rotatable=0;whiteSpace=wrap;html=1;fontSize=26;" parent="KyPyz6f6_aPmJLBt3jEC-41" vertex="1">
          <mxGeometry y="30" width="260" height="40" as="geometry" />
        </mxCell>
        <mxCell id="KyPyz6f6_aPmJLBt3jEC-43" value="&lt;span style=&quot;font-size: 20px;&quot;&gt;Product Catalog Info&lt;/span&gt;" style="text;html=1;align=center;verticalAlign=middle;whiteSpace=wrap;rounded=0;" parent="1" vertex="1">
          <mxGeometry x="360" y="365" width="420" height="30" as="geometry" />
        </mxCell>
        <mxCell id="KyPyz6f6_aPmJLBt3jEC-44" style="edgeStyle=orthogonalEdgeStyle;rounded=0;orthogonalLoop=1;jettySize=auto;html=1;entryX=1;entryY=0.5;entryDx=0;entryDy=0;" parent="1" source="KyPyz6f6_aPmJLBt3jEC-42" target="KyPyz6f6_aPmJLBt3jEC-21" edge="1">
          <mxGeometry relative="1" as="geometry" />
        </mxCell>
        <mxCell id="KyPyz6f6_aPmJLBt3jEC-47" style="edgeStyle=orthogonalEdgeStyle;rounded=0;orthogonalLoop=1;jettySize=auto;html=1;" parent="1" source="KyPyz6f6_aPmJLBt3jEC-34" target="KyPyz6f6_aPmJLBt3jEC-38" edge="1">
          <mxGeometry relative="1" as="geometry" />
        </mxCell>
        <mxCell id="KyPyz6f6_aPmJLBt3jEC-48" value="&lt;font style=&quot;font-size: 22px;&quot;&gt;&lt;b&gt;CRM&lt;/b&gt;&lt;/font&gt;" style="rounded=1;whiteSpace=wrap;html=1;fillColor=#dae8fc;dashed=1;strokeColor=none;" parent="1" vertex="1">
          <mxGeometry x="-420" y="240" width="210" height="60" as="geometry" />
        </mxCell>
        <mxCell id="KyPyz6f6_aPmJLBt3jEC-50" value="&lt;font style=&quot;font-size: 22px;&quot;&gt;&lt;b&gt;ERP&lt;/b&gt;&lt;/font&gt;" style="rounded=1;whiteSpace=wrap;html=1;fillColor=#fff2cc;dashed=1;strokeColor=none;" parent="1" vertex="1">
          <mxGeometry x="490" y="270" width="210" height="60" as="geometry" />
        </mxCell>
        <mxCell id="vk2U_BOG59wUyEl0DZtE-2" value="&lt;font style=&quot;font-size: 24px;&quot;&gt;&lt;b&gt;Product&lt;/b&gt;&lt;/font&gt;" style="text;html=1;strokeColor=#d79b00;fillColor=#ffe6cc;align=center;verticalAlign=middle;whiteSpace=wrap;overflow=hidden;" vertex="1" parent="1">
          <mxGeometry x="442" y="483" width="260" height="40" as="geometry" />
        </mxCell>
        <mxCell id="vk2U_BOG59wUyEl0DZtE-3" value="&lt;font style=&quot;font-size: 24px;&quot;&gt;&lt;b&gt;Product&lt;/b&gt;&lt;/font&gt;" style="text;html=1;strokeColor=#d79b00;fillColor=#ffe6cc;align=center;verticalAlign=middle;whiteSpace=wrap;overflow=hidden;" vertex="1" parent="1">
          <mxGeometry x="-136" y="460" width="260" height="40" as="geometry" />
        </mxCell>
        <mxCell id="vk2U_BOG59wUyEl0DZtE-4" value="&lt;font style=&quot;font-size: 24px;&quot;&gt;&lt;b&gt;Customers&lt;/b&gt;&lt;/font&gt;" style="text;html=1;strokeColor=#82b366;fillColor=#d5e8d4;align=center;verticalAlign=middle;whiteSpace=wrap;overflow=hidden;" vertex="1" parent="1">
          <mxGeometry x="-130" y="771" width="259" height="40" as="geometry" />
        </mxCell>
        <mxCell id="vk2U_BOG59wUyEl0DZtE-5" value="&lt;font style=&quot;font-size: 24px;&quot;&gt;&lt;b&gt;Customers&lt;/b&gt;&lt;/font&gt;" style="text;html=1;strokeColor=#82b366;fillColor=#d5e8d4;align=center;verticalAlign=middle;whiteSpace=wrap;overflow=hidden;" vertex="1" parent="1">
          <mxGeometry x="418" y="668" width="259" height="40" as="geometry" />
        </mxCell>
        <mxCell id="vk2U_BOG59wUyEl0DZtE-6" value="&lt;font style=&quot;font-size: 24px;&quot;&gt;&lt;b&gt;Customers&lt;/b&gt;&lt;/font&gt;" style="text;html=1;strokeColor=#82b366;fillColor=#d5e8d4;align=center;verticalAlign=middle;whiteSpace=wrap;overflow=hidden;" vertex="1" parent="1">
          <mxGeometry x="473" y="881" width="259" height="40" as="geometry" />
        </mxCell>
        <mxCell id="vk2U_BOG59wUyEl0DZtE-7" value="&lt;font style=&quot;font-size: 24px;&quot;&gt;&lt;b&gt;Sales&lt;/b&gt;&lt;/font&gt;" style="text;html=1;strokeColor=#9673a6;fillColor=#e1d5e7;align=center;verticalAlign=middle;whiteSpace=wrap;overflow=hidden;" vertex="1" parent="1">
          <mxGeometry x="-729" y="582" width="259" height="40" as="geometry" />
        </mxCell>
      </root>
    </mxGraphModel>
  </diagram>
</mxfile>
